<svg width="23" height="22" viewBox="0 0 23 22" fill="none" xmlns="http://www.w3.org/2000/svg">
<path d="M11.4032 0.183594C5.43331 0.183594 0.548828 5.06807 0.548828 11.038C0.548828 13.5345 1.41718 15.9225 3.04534 17.8763L0.87446 20.0471C0.440284 20.4813 0.440284 21.1326 0.87446 21.5668C1.09155 21.7839 1.30864 21.8924 1.63427 21.8924H11.4032C17.3731 21.8924 22.2576 17.0079 22.2576 11.038C22.2576 5.06807 17.3731 0.183594 11.4032 0.183594ZM12.4887 14.2943H5.97603C5.32476 14.2943 4.89059 13.8601 4.89059 13.2089C4.89059 12.5576 5.32476 12.1234 5.97603 12.1234H12.4887C13.1399 12.1234 13.5741 12.5576 13.5741 13.2089C13.5741 13.8601 13.1399 14.2943 12.4887 14.2943ZM16.8304 9.95255H5.97603C5.32476 9.95255 4.89059 9.51838 4.89059 8.86711C4.89059 8.21585 5.32476 7.78167 5.97603 7.78167H16.8304C17.4817 7.78167 17.9159 8.21585 17.9159 8.86711C17.9159 9.51838 17.4817 9.95255 16.8304 9.95255Z" fill="#1C4980"/>
</svg>
